# Blender v2.92.0 OBJ File: 'untitled.blend'
# www.blender.org
mtllib street_turn.mtl
o Plane
v -5.000000 0.000000 5.000000
v 5.000000 0.000000 5.000000
v -5.000000 0.000000 -5.000000
v 5.000000 0.000000 -5.000000
vt 0.000000 0.000000
vt 1.000000 0.000000
vt 1.000000 1.000000
vt 0.000000 1.000000
vn 0.0000 1.0000 0.0000
usemtl Material.002
s off
f 1/1/1 2/2/1 4/3/1 3/4/1
o Plane.001
v -0.250000 0.010000 -1.500000
v 0.250000 0.010000 -1.500000
v -0.250000 0.010000 -3.500000
v 0.250000 0.010000 -3.500000
vt 0.000000 0.000000
vt 1.000000 0.000000
vt 1.000000 1.000000
vt 0.000000 1.000000
vn 0.0000 1.0000 0.0000
usemtl Material.001
s off
f 5/5/2 6/6/2 8/7/2 7/8/2
o Plane.002
v 1.500000 0.010000 0.250000
v 3.500000 0.010000 0.250000
v 1.500000 0.010000 -0.250000
v 3.500000 0.010000 -0.250000
vt 0.000000 0.000000
vt 1.000000 0.000000
vt 1.000000 1.000000
vt 0.000000 1.000000
vn 0.0000 1.0000 0.0000
usemtl Material.007
s off
f 9/9/3 10/10/3 12/11/3 11/12/3
o Cube.004_Cube.006
v -3.000000 0.000000 -5.000000
v -3.000000 0.000000 3.125000
v -5.000000 0.000000 -5.000000
v -5.000000 0.250000 -5.000000
v -5.000000 0.000000 3.125000
v -5.000000 0.250000 3.125000
v -3.125000 0.250000 -5.000000
v -3.125000 0.250000 3.125000
v -3.125000 0.250000 -5.000000
v -3.125000 0.250000 3.125000
v -3.125000 0.250000 -5.000000
v -3.125000 0.250000 3.125000
v -3.096939 0.230399 -5.000000
v -3.000000 0.093897 -5.000000
v -3.000000 0.093897 3.125000
v -3.096938 0.230399 3.125000
vt 0.625000 0.500000
vt 0.859375 0.500000
vt 0.859375 0.750000
vt 0.625000 0.750000
vt 0.375000 0.500000
vt 0.375000 0.750000
vt 0.125000 0.500000
vt 0.125000 0.750000
vt 0.625000 0.000000
vt 0.625000 0.250000
vt 0.625000 0.250000
vt 0.625000 0.000000
vt 0.375000 0.000000
vt 0.468897 0.000000
vt 0.468897 0.250000
vt 0.375000 0.250000
vt 0.605399 0.262117
vt 0.625000 0.265625
vt 0.625000 0.265625
vt 0.625000 0.265625
vt 0.625000 0.984375
vt 0.625000 0.984375
vt 0.625000 0.984375
vt 0.605399 0.987883
vt 0.468897 1.000000
vt 0.375000 1.000000
vt 0.625000 0.250000
vt 0.625000 0.000000
vt 0.605399 0.000000
vt 0.605399 0.250000
vn 0.0000 1.0000 0.0000
vn -1.0000 0.0000 0.0000
vn 0.0000 -1.0000 0.0000
vn 0.0000 0.0000 1.0000
vn 1.0000 0.0000 -0.0000
vn -0.0000 0.0000 -1.0000
vn 0.8153 0.5790 -0.0000
vn 0.5726 0.8198 -0.0000
usemtl Material.012
s off
f 18/13/4 20/14/4 19/15/4 16/16/4
f 17/17/5 18/13/5 16/16/5 15/18/5
f 14/19/6 17/17/6 15/18/6 13/20/6
f 19/21/7 20/22/7 22/23/7 21/24/7
f 13/25/8 26/26/8 27/27/8 14/28/8
f 14/28/7 27/27/7 28/29/7 24/30/7 22/31/7 20/32/7 18/13/7 17/17/7
f 15/18/9 16/16/9 19/33/9 21/34/9 23/35/9 25/36/9 26/37/9 13/38/9
f 24/39/7 23/40/7 21/24/7 22/23/7
f 27/27/10 26/26/10 25/41/10 28/42/10
f 28/42/11 25/41/11 23/40/11 24/39/11
o Plane.005
v -5.000000 0.000000 5.000000
v 5.000000 0.000000 5.000000
v -5.000000 0.000000 -5.000000
v 5.000000 0.000000 -5.000000
vt 0.000000 0.000000
vt 1.000000 0.000000
vt 1.000000 1.000000
vt 0.000000 1.000000
vn 0.0000 1.0000 0.0000
usemtl Material.010
s off
f 29/43/12 30/44/12 32/45/12 31/46/12
o Plane.004
v -0.250000 0.010000 -1.500000
v 0.250000 0.010000 -1.500000
v -0.250000 0.010000 -3.500000
v 0.250000 0.010000 -3.500000
vt 0.000000 0.000000
vt 1.000000 0.000000
vt 1.000000 1.000000
vt 0.000000 1.000000
vn 0.0000 1.0000 0.0000
usemtl Material.009
s off
f 33/47/13 34/48/13 36/49/13 35/50/13
o Cube_Cube.007
v 3.000000 0.000000 -3.000000
v 3.000000 0.000000 -5.000000
v 5.000000 0.000000 -3.000000
v 5.000000 0.000000 -5.000000
v 5.000000 0.250000 -5.000000
v 3.103560 0.250000 -3.103560
v 3.103560 0.250000 -5.000000
v 5.000000 0.250000 -3.103560
v 3.060180 0.244577 -3.060180
v 3.060180 0.244577 -5.000000
v 5.000000 0.244577 -3.060180
v 3.000000 0.209026 -3.000000
v 3.053242 0.242484 -3.053242
v 3.000000 0.209026 -5.000000
v 3.053242 0.242484 -5.000000
v 5.000000 0.242484 -3.053242
v 5.000000 0.209026 -3.000000
vt 0.625000 0.500000
vt 0.862055 0.500000
vt 0.862055 0.737055
vt 0.625000 0.737055
vt 0.375000 0.500000
vt 0.619577 0.742478
vt 0.617484 0.743345
vt 0.584026 0.750000
vt 0.375000 0.750000
vt 0.125000 0.500000
vt 0.125000 0.750000
vt 0.375000 0.250000
vt 0.584026 0.250000
vt 0.617484 0.256655
vt 0.619578 0.257522
vt 0.625000 0.262945
vt 0.375000 0.000000
vt 0.584026 0.000000
vt 0.625000 0.012945
vt 0.625000 0.250000
vt 0.619577 0.250000
vt 0.619577 0.007522
vt 0.617484 0.993345
vt 0.617484 0.750000
vt 0.619577 0.750000
vt 0.619577 0.992478
vt 0.584026 1.000000
vt 0.375000 1.000000
vt 0.625000 0.750000
vt 0.625000 0.987055
vt 0.617484 0.006655
vt 0.617484 0.250000
vn 0.0000 1.0000 0.0000
vn 1.0000 -0.0000 0.0000
vn 0.0000 -1.0000 0.0000
vn 0.0000 0.0000 -1.0000
vn -1.0000 0.0000 0.0000
vn -0.1240 0.9923 0.0000
vn 0.0000 0.9574 0.2889
vn 0.0000 0.0000 1.0000
vn 0.0000 0.9923 0.1240
vn -0.5321 0.8467 0.0000
vn 0.0000 0.8467 0.5321
vn -0.2889 0.9574 0.0000
usemtl Material.005
s off
f 41/51/14 43/52/14 42/53/14 44/54/14
f 40/55/15 41/51/15 44/54/15 47/56/15 52/57/15 53/58/15 39/59/15
f 38/60/16 40/55/16 39/59/16 37/61/16
f 38/62/17 50/63/17 51/64/17 46/65/17 43/66/17 41/51/17 40/55/17
f 37/67/18 48/68/18 50/63/18 38/62/18
f 42/69/19 43/70/19 46/71/19 45/72/19
f 49/73/20 52/74/20 47/75/20 45/76/20
f 39/59/21 53/58/21 48/77/21 37/78/21
f 44/79/22 42/80/22 45/76/22 47/75/22
f 50/63/23 48/68/23 49/81/23 51/82/23
f 48/77/24 53/58/24 52/74/24 49/73/24
f 51/82/25 49/81/25 45/72/25 46/71/25
o Cube.002_Cube.011
v -3.125000 0.000000 3.000000
v 5.000000 0.000000 3.000000
v -3.125000 0.000000 5.000000
v -3.125000 0.250000 5.000000
v 5.000000 0.000000 5.000000
v 5.000000 0.250000 5.000000
v -3.125000 0.250000 3.125000
v 5.000000 0.250000 3.125000
v -3.125000 0.250000 3.125000
v 5.000000 0.250000 3.125000
v -3.125000 0.250000 3.125000
v 5.000000 0.250000 3.125000
v -3.125000 0.230399 3.096939
v -3.125000 0.093897 3.000000
v 5.000000 0.093897 3.000000
v 5.000000 0.230399 3.096939
vt 0.625000 0.500000
vt 0.859375 0.500000
vt 0.859375 0.750000
vt 0.625000 0.750000
vt 0.375000 0.500000
vt 0.375000 0.750000
vt 0.125000 0.500000
vt 0.125000 0.750000
vt 0.625000 0.000000
vt 0.625000 0.250000
vt 0.625000 0.250000
vt 0.625000 0.000000
vt 0.375000 0.000000
vt 0.468897 0.000000
vt 0.468897 0.250000
vt 0.375000 0.250000
vt 0.605399 0.262117
vt 0.625000 0.265625
vt 0.625000 0.265625
vt 0.625000 0.265625
vt 0.625000 0.984375
vt 0.625000 0.984375
vt 0.625000 0.984375
vt 0.605399 0.987883
vt 0.468897 1.000000
vt 0.375000 1.000000
vt 0.625000 0.250000
vt 0.625000 0.000000
vt 0.605399 0.000000
vt 0.605399 0.250000
vn 0.0000 1.0000 0.0000
vn 0.0000 0.0000 1.0000
vn 0.0000 -1.0000 0.0000
vn 0.0000 0.0000 -1.0000
vn 1.0000 0.0000 0.0000
vn -1.0000 0.0000 0.0000
vn 0.0000 0.5790 -0.8153
vn 0.0000 0.8198 -0.5726
usemtl Material.005
s off
f 59/83/26 61/84/26 60/85/26 57/86/26
f 58/87/27 59/83/27 57/86/27 56/88/27
f 55/89/28 58/87/28 56/88/28 54/90/28
f 60/91/27 61/92/27 63/93/27 62/94/27
f 54/95/29 67/96/29 68/97/29 55/98/29
f 55/98/30 68/97/30 69/99/30 65/100/30 63/101/30 61/102/30 59/83/30 58/87/30
f 56/88/31 57/86/31 60/103/31 62/104/31 64/105/31 66/106/31 67/107/31 54/108/31
f 65/109/27 64/110/27 62/94/27 63/93/27
f 68/97/32 67/96/32 66/111/32 69/112/32
f 69/112/33 66/111/33 64/110/33 65/109/33
o Cube.001_Cube.012
v -4.925611 0.000000 4.930134
v -4.925611 0.250000 4.930134
v -4.925611 0.000000 3.130134
v -4.925611 0.250000 3.130134
v -3.125610 0.000000 4.930134
v -3.125610 0.250000 4.930134
v -3.125610 0.000000 3.130134
v -3.125610 0.250000 3.130134
v -4.991896 0.000000 3.130134
v -4.991896 0.000000 4.930134
v -4.991896 0.250000 4.930134
v -4.991896 0.250000 3.130134
v -4.925611 0.000000 4.992166
v -4.925611 0.250000 4.992166
v -3.125610 0.250000 4.992166
v -3.125610 0.000000 4.992166
v -4.925611 0.000000 5.002535
v -4.925611 0.250000 5.002535
v -3.125610 0.250000 5.002535
v -3.125610 0.000000 5.002535
v -4.925611 0.000000 4.996449
v -4.925611 0.250000 4.996449
v -4.991896 0.000000 4.996449
v -4.991896 0.250000 4.996449
vt 0.875000 0.750000
vt 0.875000 0.500000
vt 0.875000 0.500000
vt 0.875000 0.750000
vt 0.375000 0.250000
vt 0.625000 0.250000
vt 0.625000 0.500000
vt 0.375000 0.500000
vt 0.625000 0.750000
vt 0.375000 0.750000
vt 0.875000 0.750000
vt 0.625000 0.750000
vt 0.125000 0.500000
vt 0.125000 0.750000
vt 0.375000 0.000000
vt 0.625000 0.000000
vt 0.625000 0.250000
vt 0.375000 0.250000
vt 0.125000 0.750000
vt 0.125000 0.500000
vt 0.875000 0.750000
vt 0.875000 0.750000
vt 0.125000 0.750000
vt 0.375000 0.750000
vt 0.375000 0.750000
vt 0.125000 0.750000
vt 0.625000 1.000000
vt 0.375000 1.000000
vt 0.375000 1.000000
vt 0.625000 1.000000
vt 0.625000 0.750000
vt 0.625000 1.000000
vt 0.375000 1.000000
vt 0.875000 0.750000
vt 0.375000 1.000000
vt 0.625000 1.000000
vt 0.625000 1.000000
vt 0.375000 1.000000
vt 0.375000 0.000000
vt 0.625000 0.000000
vt 0.125000 0.750000
vt 0.125000 0.750000
vn 0.0000 1.0000 0.0000
vn 0.0000 0.0000 -1.0000
vn 1.0000 0.0000 0.0000
vn 0.0000 -1.0000 0.0000
vn -1.0000 0.0000 0.0000
vn 0.0000 0.0000 1.0000
usemtl Material.005
s off
f 71/113/34 73/114/34 81/115/34 80/116/34
f 72/117/35 73/118/35 77/119/35 76/120/35
f 76/120/36 77/119/36 75/121/36 74/122/36
f 75/121/34 71/113/34 83/123/34 84/124/34
f 72/125/37 76/120/37 74/122/37 70/126/37
f 77/119/34 73/114/34 71/113/34 75/121/34
f 79/127/38 80/128/38 81/129/38 78/130/38
f 72/125/37 70/126/37 79/131/37 78/132/37
f 73/118/35 72/117/35 78/130/35 81/129/35
f 71/113/34 80/116/34 93/133/34 91/134/34
f 82/135/37 85/136/37 89/137/37 86/138/37
f 74/122/36 75/121/36 84/124/36 85/136/36
f 71/139/38 70/140/38 82/141/38 83/142/38
f 70/126/37 74/122/37 85/136/37 82/135/37
f 89/137/39 88/143/39 87/144/39 86/145/39
f 83/142/38 82/141/38 86/145/38 87/144/38
f 84/124/34 83/123/34 87/146/34 88/143/34
f 85/136/36 84/124/36 88/143/36 89/137/36
f 90/147/39 91/148/39 93/149/39 92/150/39
f 80/128/38 79/127/38 92/151/38 93/152/38
f 79/131/37 70/126/37 90/153/37 92/154/37
f 70/140/36 71/139/36 91/148/36 90/147/36
